<mxfile host="65bd71144e">
    <diagram name="Page-1" id="e7e014a7-5840-1c2e-5031-d8a46d1fe8dd">
        <mxGraphModel dx="1101" dy="540" grid="1" gridSize="10" guides="1" tooltips="1" connect="1" arrows="1" fold="1" page="1" pageScale="1" pageWidth="1169" pageHeight="826" background="none" math="0" shadow="0">
            <root>
                <mxCell id="0"/>
                <mxCell id="1" parent="0"/>
                <mxCell id="sadiETQcaKYxQHdvcYxY-53" value="Customer" style="swimlane;fontStyle=1;align=center;verticalAlign=top;childLayout=stackLayout;horizontal=1;startSize=26;horizontalStack=0;resizeParent=1;resizeParentMax=0;resizeLast=0;collapsible=1;marginBottom=0;" parent="1" vertex="1">
                    <mxGeometry x="950" y="10" width="160" height="138" as="geometry"/>
                </mxCell>
                <mxCell id="sadiETQcaKYxQHdvcYxY-54" value="int PersonID" style="text;strokeColor=none;fillColor=none;align=left;verticalAlign=top;spacingLeft=4;spacingRight=4;overflow=hidden;rotatable=0;points=[[0,0.5],[1,0.5]];portConstraint=eastwest;" parent="sadiETQcaKYxQHdvcYxY-53" vertex="1">
                    <mxGeometry y="26" width="160" height="26" as="geometry"/>
                </mxCell>
                <mxCell id="sadiETQcaKYxQHdvcYxY-127" value="int CustomerID&#10;" style="text;strokeColor=none;fillColor=none;align=left;verticalAlign=top;spacingLeft=4;spacingRight=4;overflow=hidden;rotatable=0;points=[[0,0.5],[1,0.5]];portConstraint=eastwest;" parent="sadiETQcaKYxQHdvcYxY-53" vertex="1">
                    <mxGeometry y="52" width="160" height="26" as="geometry"/>
                </mxCell>
                <mxCell id="sadiETQcaKYxQHdvcYxY-124" value="DateTime LastPurchase" style="text;strokeColor=none;fillColor=none;align=left;verticalAlign=top;spacingLeft=4;spacingRight=4;overflow=hidden;rotatable=0;points=[[0,0.5],[1,0.5]];portConstraint=eastwest;" parent="sadiETQcaKYxQHdvcYxY-53" vertex="1">
                    <mxGeometry y="78" width="160" height="26" as="geometry"/>
                </mxCell>
                <mxCell id="sadiETQcaKYxQHdvcYxY-55" value="" style="line;strokeWidth=1;fillColor=none;align=left;verticalAlign=middle;spacingTop=-1;spacingLeft=3;spacingRight=3;rotatable=0;labelPosition=right;points=[];portConstraint=eastwest;" parent="sadiETQcaKYxQHdvcYxY-53" vertex="1">
                    <mxGeometry y="104" width="160" height="8" as="geometry"/>
                </mxCell>
                <mxCell id="sadiETQcaKYxQHdvcYxY-56" value="+ method(type): type" style="text;strokeColor=none;fillColor=none;align=left;verticalAlign=top;spacingLeft=4;spacingRight=4;overflow=hidden;rotatable=0;points=[[0,0.5],[1,0.5]];portConstraint=eastwest;" parent="sadiETQcaKYxQHdvcYxY-53" vertex="1">
                    <mxGeometry y="112" width="160" height="26" as="geometry"/>
                </mxCell>
                <mxCell id="12" style="edgeStyle=none;html=1;" edge="1" parent="1" source="sadiETQcaKYxQHdvcYxY-61" target="2">
                    <mxGeometry relative="1" as="geometry"/>
                </mxCell>
                <mxCell id="sadiETQcaKYxQHdvcYxY-61" value="SaleOrder" style="swimlane;fontStyle=1;align=center;verticalAlign=top;childLayout=stackLayout;horizontal=1;startSize=26;horizontalStack=0;resizeParent=1;resizeParentMax=0;resizeLast=0;collapsible=1;marginBottom=0;" parent="1" vertex="1">
                    <mxGeometry x="390" y="10" width="170" height="242" as="geometry"/>
                </mxCell>
                <mxCell id="sadiETQcaKYxQHdvcYxY-62" value="int OrderID" style="text;strokeColor=none;fillColor=none;align=left;verticalAlign=top;spacingLeft=4;spacingRight=4;overflow=hidden;rotatable=0;points=[[0,0.5],[1,0.5]];portConstraint=eastwest;" parent="sadiETQcaKYxQHdvcYxY-61" vertex="1">
                    <mxGeometry y="26" width="170" height="26" as="geometry"/>
                </mxCell>
                <mxCell id="sadiETQcaKYxQHdvcYxY-99" value="DateTime TimeOfCreation" style="text;strokeColor=none;fillColor=none;align=left;verticalAlign=top;spacingLeft=4;spacingRight=4;overflow=hidden;rotatable=0;points=[[0,0.5],[1,0.5]];portConstraint=eastwest;" parent="sadiETQcaKYxQHdvcYxY-61" vertex="1">
                    <mxGeometry y="52" width="170" height="26" as="geometry"/>
                </mxCell>
                <mxCell id="sadiETQcaKYxQHdvcYxY-100" value="DateTime TimeOfAcceptance" style="text;strokeColor=none;fillColor=none;align=left;verticalAlign=top;spacingLeft=4;spacingRight=4;overflow=hidden;rotatable=0;points=[[0,0.5],[1,0.5]];portConstraint=eastwest;" parent="sadiETQcaKYxQHdvcYxY-61" vertex="1">
                    <mxGeometry y="78" width="170" height="26" as="geometry"/>
                </mxCell>
                <mxCell id="sadiETQcaKYxQHdvcYxY-101" value="int PersonID" style="text;strokeColor=none;fillColor=none;align=left;verticalAlign=top;spacingLeft=4;spacingRight=4;overflow=hidden;rotatable=0;points=[[0,0.5],[1,0.5]];portConstraint=eastwest;" parent="sadiETQcaKYxQHdvcYxY-61" vertex="1">
                    <mxGeometry y="104" width="170" height="26" as="geometry"/>
                </mxCell>
                <mxCell id="sadiETQcaKYxQHdvcYxY-102" value="enum Status" style="text;strokeColor=none;fillColor=none;align=left;verticalAlign=top;spacingLeft=4;spacingRight=4;overflow=hidden;rotatable=0;points=[[0,0.5],[1,0.5]];portConstraint=eastwest;" parent="sadiETQcaKYxQHdvcYxY-61" vertex="1">
                    <mxGeometry y="130" width="170" height="26" as="geometry"/>
                </mxCell>
                <mxCell id="sadiETQcaKYxQHdvcYxY-128" value="OBJ Product" style="text;strokeColor=none;fillColor=none;align=left;verticalAlign=top;spacingLeft=4;spacingRight=4;overflow=hidden;rotatable=0;points=[[0,0.5],[1,0.5]];portConstraint=eastwest;" parent="sadiETQcaKYxQHdvcYxY-61" vertex="1">
                    <mxGeometry y="156" width="170" height="26" as="geometry"/>
                </mxCell>
                <mxCell id="sadiETQcaKYxQHdvcYxY-129" value="decimal TotalPrice" style="text;strokeColor=none;fillColor=none;align=left;verticalAlign=top;spacingLeft=4;spacingRight=4;overflow=hidden;rotatable=0;points=[[0,0.5],[1,0.5]];portConstraint=eastwest;" parent="sadiETQcaKYxQHdvcYxY-61" vertex="1">
                    <mxGeometry y="182" width="170" height="26" as="geometry"/>
                </mxCell>
                <mxCell id="sadiETQcaKYxQHdvcYxY-63" value="" style="line;strokeWidth=1;fillColor=none;align=left;verticalAlign=middle;spacingTop=-1;spacingLeft=3;spacingRight=3;rotatable=0;labelPosition=right;points=[];portConstraint=eastwest;" parent="sadiETQcaKYxQHdvcYxY-61" vertex="1">
                    <mxGeometry y="208" width="170" height="8" as="geometry"/>
                </mxCell>
                <mxCell id="sadiETQcaKYxQHdvcYxY-64" value="+ method(type): type" style="text;strokeColor=none;fillColor=none;align=left;verticalAlign=top;spacingLeft=4;spacingRight=4;overflow=hidden;rotatable=0;points=[[0,0.5],[1,0.5]];portConstraint=eastwest;" parent="sadiETQcaKYxQHdvcYxY-61" vertex="1">
                    <mxGeometry y="216" width="170" height="26" as="geometry"/>
                </mxCell>
                <mxCell id="sadiETQcaKYxQHdvcYxY-69" value="Address" style="swimlane;fontStyle=1;align=center;verticalAlign=top;childLayout=stackLayout;horizontal=1;startSize=26;horizontalStack=0;resizeParent=1;resizeParentMax=0;resizeLast=0;collapsible=1;marginBottom=0;" parent="1" vertex="1">
                    <mxGeometry x="770" y="10" width="160" height="190" as="geometry"/>
                </mxCell>
                <mxCell id="sadiETQcaKYxQHdvcYxY-118" value="string Country" style="text;strokeColor=none;fillColor=none;align=left;verticalAlign=top;spacingLeft=4;spacingRight=4;overflow=hidden;rotatable=0;points=[[0,0.5],[1,0.5]];portConstraint=eastwest;" parent="sadiETQcaKYxQHdvcYxY-69" vertex="1">
                    <mxGeometry y="26" width="160" height="26" as="geometry"/>
                </mxCell>
                <mxCell id="sadiETQcaKYxQHdvcYxY-117" value="string City" style="text;strokeColor=none;fillColor=none;align=left;verticalAlign=top;spacingLeft=4;spacingRight=4;overflow=hidden;rotatable=0;points=[[0,0.5],[1,0.5]];portConstraint=eastwest;" parent="sadiETQcaKYxQHdvcYxY-69" vertex="1">
                    <mxGeometry y="52" width="160" height="26" as="geometry"/>
                </mxCell>
                <mxCell id="sadiETQcaKYxQHdvcYxY-116" value="string ZipCode" style="text;strokeColor=none;fillColor=none;align=left;verticalAlign=top;spacingLeft=4;spacingRight=4;overflow=hidden;rotatable=0;points=[[0,0.5],[1,0.5]];portConstraint=eastwest;" parent="sadiETQcaKYxQHdvcYxY-69" vertex="1">
                    <mxGeometry y="78" width="160" height="26" as="geometry"/>
                </mxCell>
                <mxCell id="sadiETQcaKYxQHdvcYxY-115" value="string BuildingNumber" style="text;strokeColor=none;fillColor=none;align=left;verticalAlign=top;spacingLeft=4;spacingRight=4;overflow=hidden;rotatable=0;points=[[0,0.5],[1,0.5]];portConstraint=eastwest;" parent="sadiETQcaKYxQHdvcYxY-69" vertex="1">
                    <mxGeometry y="104" width="160" height="26" as="geometry"/>
                </mxCell>
                <mxCell id="sadiETQcaKYxQHdvcYxY-114" value="string Road" style="text;strokeColor=none;fillColor=none;align=left;verticalAlign=top;spacingLeft=4;spacingRight=4;overflow=hidden;rotatable=0;points=[[0,0.5],[1,0.5]];portConstraint=eastwest;" parent="sadiETQcaKYxQHdvcYxY-69" vertex="1">
                    <mxGeometry y="130" width="160" height="26" as="geometry"/>
                </mxCell>
                <mxCell id="sadiETQcaKYxQHdvcYxY-71" value="" style="line;strokeWidth=1;fillColor=none;align=left;verticalAlign=middle;spacingTop=-1;spacingLeft=3;spacingRight=3;rotatable=0;labelPosition=right;points=[];portConstraint=eastwest;" parent="sadiETQcaKYxQHdvcYxY-69" vertex="1">
                    <mxGeometry y="156" width="160" height="8" as="geometry"/>
                </mxCell>
                <mxCell id="sadiETQcaKYxQHdvcYxY-72" value="+ method(type): type" style="text;strokeColor=none;fillColor=none;align=left;verticalAlign=top;spacingLeft=4;spacingRight=4;overflow=hidden;rotatable=0;points=[[0,0.5],[1,0.5]];portConstraint=eastwest;" parent="sadiETQcaKYxQHdvcYxY-69" vertex="1">
                    <mxGeometry y="164" width="160" height="26" as="geometry"/>
                </mxCell>
                <mxCell id="sadiETQcaKYxQHdvcYxY-73" value="Person" style="swimlane;fontStyle=1;align=center;verticalAlign=top;childLayout=stackLayout;horizontal=1;startSize=26;horizontalStack=0;resizeParent=1;resizeParentMax=0;resizeLast=0;collapsible=1;marginBottom=0;" parent="1" vertex="1">
                    <mxGeometry x="585" y="10" width="160" height="190" as="geometry"/>
                </mxCell>
                <mxCell id="sadiETQcaKYxQHdvcYxY-108" value="int ID" style="text;strokeColor=none;fillColor=none;align=left;verticalAlign=top;spacingLeft=4;spacingRight=4;overflow=hidden;rotatable=0;points=[[0,0.5],[1,0.5]];portConstraint=eastwest;" parent="sadiETQcaKYxQHdvcYxY-73" vertex="1">
                    <mxGeometry y="26" width="160" height="26" as="geometry"/>
                </mxCell>
                <mxCell id="sadiETQcaKYxQHdvcYxY-126" value="string FirstName" style="text;strokeColor=none;fillColor=none;align=left;verticalAlign=top;spacingLeft=4;spacingRight=4;overflow=hidden;rotatable=0;points=[[0,0.5],[1,0.5]];portConstraint=eastwest;" parent="sadiETQcaKYxQHdvcYxY-73" vertex="1">
                    <mxGeometry y="52" width="160" height="26" as="geometry"/>
                </mxCell>
                <mxCell id="sadiETQcaKYxQHdvcYxY-109" value="string LastName" style="text;strokeColor=none;fillColor=none;align=left;verticalAlign=top;spacingLeft=4;spacingRight=4;overflow=hidden;rotatable=0;points=[[0,0.5],[1,0.5]];portConstraint=eastwest;" parent="sadiETQcaKYxQHdvcYxY-73" vertex="1">
                    <mxGeometry y="78" width="160" height="26" as="geometry"/>
                </mxCell>
                <mxCell id="sadiETQcaKYxQHdvcYxY-111" value="int PhoneNumber" style="text;strokeColor=none;fillColor=none;align=left;verticalAlign=top;spacingLeft=4;spacingRight=4;overflow=hidden;rotatable=0;points=[[0,0.5],[1,0.5]];portConstraint=eastwest;" parent="sadiETQcaKYxQHdvcYxY-73" vertex="1">
                    <mxGeometry y="104" width="160" height="26" as="geometry"/>
                </mxCell>
                <mxCell id="sadiETQcaKYxQHdvcYxY-112" value="string Email" style="text;strokeColor=none;fillColor=none;align=left;verticalAlign=top;spacingLeft=4;spacingRight=4;overflow=hidden;rotatable=0;points=[[0,0.5],[1,0.5]];portConstraint=eastwest;" parent="sadiETQcaKYxQHdvcYxY-73" vertex="1">
                    <mxGeometry y="130" width="160" height="26" as="geometry"/>
                </mxCell>
                <mxCell id="sadiETQcaKYxQHdvcYxY-75" value="" style="line;strokeWidth=1;fillColor=none;align=left;verticalAlign=middle;spacingTop=-1;spacingLeft=3;spacingRight=3;rotatable=0;labelPosition=right;points=[];portConstraint=eastwest;" parent="sadiETQcaKYxQHdvcYxY-73" vertex="1">
                    <mxGeometry y="156" width="160" height="8" as="geometry"/>
                </mxCell>
                <mxCell id="sadiETQcaKYxQHdvcYxY-76" value="+ method(type): type" style="text;strokeColor=none;fillColor=none;align=left;verticalAlign=top;spacingLeft=4;spacingRight=4;overflow=hidden;rotatable=0;points=[[0,0.5],[1,0.5]];portConstraint=eastwest;" parent="sadiETQcaKYxQHdvcYxY-73" vertex="1">
                    <mxGeometry y="164" width="160" height="26" as="geometry"/>
                </mxCell>
                <mxCell id="sadiETQcaKYxQHdvcYxY-77" value="Product" style="swimlane;fontStyle=1;align=center;verticalAlign=top;childLayout=stackLayout;horizontal=1;startSize=26;horizontalStack=0;resizeParent=1;resizeParentMax=0;resizeLast=0;collapsible=1;marginBottom=0;" parent="1" vertex="1">
                    <mxGeometry x="200" y="10" width="160" height="268" as="geometry"/>
                </mxCell>
                <mxCell id="sadiETQcaKYxQHdvcYxY-78" value="int ItemID" style="text;strokeColor=none;fillColor=none;align=left;verticalAlign=top;spacingLeft=4;spacingRight=4;overflow=hidden;rotatable=0;points=[[0,0.5],[1,0.5]];portConstraint=eastwest;" parent="sadiETQcaKYxQHdvcYxY-77" vertex="1">
                    <mxGeometry y="26" width="160" height="26" as="geometry"/>
                </mxCell>
                <mxCell id="sadiETQcaKYxQHdvcYxY-92" value="string Name" style="text;strokeColor=none;fillColor=none;align=left;verticalAlign=top;spacingLeft=4;spacingRight=4;overflow=hidden;rotatable=0;points=[[0,0.5],[1,0.5]];portConstraint=eastwest;" parent="sadiETQcaKYxQHdvcYxY-77" vertex="1">
                    <mxGeometry y="52" width="160" height="26" as="geometry"/>
                </mxCell>
                <mxCell id="sadiETQcaKYxQHdvcYxY-93" value="string Description" style="text;strokeColor=none;fillColor=none;align=left;verticalAlign=top;spacingLeft=4;spacingRight=4;overflow=hidden;rotatable=0;points=[[0,0.5],[1,0.5]];portConstraint=eastwest;" parent="sadiETQcaKYxQHdvcYxY-77" vertex="1">
                    <mxGeometry y="78" width="160" height="26" as="geometry"/>
                </mxCell>
                <mxCell id="sadiETQcaKYxQHdvcYxY-94" value="decimal SellingPrice" style="text;strokeColor=none;fillColor=none;align=left;verticalAlign=top;spacingLeft=4;spacingRight=4;overflow=hidden;rotatable=0;points=[[0,0.5],[1,0.5]];portConstraint=eastwest;" parent="sadiETQcaKYxQHdvcYxY-77" vertex="1">
                    <mxGeometry y="104" width="160" height="26" as="geometry"/>
                </mxCell>
                <mxCell id="sadiETQcaKYxQHdvcYxY-95" value="decimal PurchasePrice" style="text;strokeColor=none;fillColor=none;align=left;verticalAlign=top;spacingLeft=4;spacingRight=4;overflow=hidden;rotatable=0;points=[[0,0.5],[1,0.5]];portConstraint=eastwest;" parent="sadiETQcaKYxQHdvcYxY-77" vertex="1">
                    <mxGeometry y="130" width="160" height="26" as="geometry"/>
                </mxCell>
                <mxCell id="sadiETQcaKYxQHdvcYxY-96" value="OBJ Location" style="text;strokeColor=none;fillColor=none;align=left;verticalAlign=top;spacingLeft=4;spacingRight=4;overflow=hidden;rotatable=0;points=[[0,0.5],[1,0.5]];portConstraint=eastwest;" parent="sadiETQcaKYxQHdvcYxY-77" vertex="1">
                    <mxGeometry y="156" width="160" height="26" as="geometry"/>
                </mxCell>
                <mxCell id="sadiETQcaKYxQHdvcYxY-97" value="decimal QTY " style="text;strokeColor=none;fillColor=none;align=left;verticalAlign=top;spacingLeft=4;spacingRight=4;overflow=hidden;rotatable=0;points=[[0,0.5],[1,0.5]];portConstraint=eastwest;" parent="sadiETQcaKYxQHdvcYxY-77" vertex="1">
                    <mxGeometry y="182" width="160" height="26" as="geometry"/>
                </mxCell>
                <mxCell id="sadiETQcaKYxQHdvcYxY-98" value="string Unit" style="text;strokeColor=none;fillColor=none;align=left;verticalAlign=top;spacingLeft=4;spacingRight=4;overflow=hidden;rotatable=0;points=[[0,0.5],[1,0.5]];portConstraint=eastwest;" parent="sadiETQcaKYxQHdvcYxY-77" vertex="1">
                    <mxGeometry y="208" width="160" height="26" as="geometry"/>
                </mxCell>
                <mxCell id="sadiETQcaKYxQHdvcYxY-79" value="" style="line;strokeWidth=1;fillColor=none;align=left;verticalAlign=middle;spacingTop=-1;spacingLeft=3;spacingRight=3;rotatable=0;labelPosition=right;points=[];portConstraint=eastwest;" parent="sadiETQcaKYxQHdvcYxY-77" vertex="1">
                    <mxGeometry y="234" width="160" height="8" as="geometry"/>
                </mxCell>
                <mxCell id="sadiETQcaKYxQHdvcYxY-80" value="+ method(type): type" style="text;strokeColor=none;fillColor=none;align=left;verticalAlign=top;spacingLeft=4;spacingRight=4;overflow=hidden;rotatable=0;points=[[0,0.5],[1,0.5]];portConstraint=eastwest;" parent="sadiETQcaKYxQHdvcYxY-77" vertex="1">
                    <mxGeometry y="242" width="160" height="26" as="geometry"/>
                </mxCell>
                <mxCell id="sadiETQcaKYxQHdvcYxY-81" value="Corporation" style="swimlane;fontStyle=1;align=center;verticalAlign=top;childLayout=stackLayout;horizontal=1;startSize=26;horizontalStack=0;resizeParent=1;resizeParentMax=0;resizeLast=0;collapsible=1;marginBottom=0;" parent="1" vertex="1">
                    <mxGeometry x="10" y="10" width="160" height="242" as="geometry"/>
                </mxCell>
                <mxCell id="sadiETQcaKYxQHdvcYxY-82" value="string CorporationName" style="text;strokeColor=none;fillColor=none;align=left;verticalAlign=top;spacingLeft=4;spacingRight=4;overflow=hidden;rotatable=0;points=[[0,0.5],[1,0.5]];portConstraint=eastwest;" parent="sadiETQcaKYxQHdvcYxY-81" vertex="1">
                    <mxGeometry y="26" width="160" height="26" as="geometry"/>
                </mxCell>
                <mxCell id="sadiETQcaKYxQHdvcYxY-85" value="string RoadName" style="text;strokeColor=none;fillColor=none;align=left;verticalAlign=top;spacingLeft=4;spacingRight=4;overflow=hidden;rotatable=0;points=[[0,0.5],[1,0.5]];portConstraint=eastwest;" parent="sadiETQcaKYxQHdvcYxY-81" vertex="1">
                    <mxGeometry y="52" width="160" height="26" as="geometry"/>
                </mxCell>
                <mxCell id="sadiETQcaKYxQHdvcYxY-86" value="string BuildingNumber" style="text;strokeColor=none;fillColor=none;align=left;verticalAlign=top;spacingLeft=4;spacingRight=4;overflow=hidden;rotatable=0;points=[[0,0.5],[1,0.5]];portConstraint=eastwest;" parent="sadiETQcaKYxQHdvcYxY-81" vertex="1">
                    <mxGeometry y="78" width="160" height="26" as="geometry"/>
                </mxCell>
                <mxCell id="sadiETQcaKYxQHdvcYxY-87" value="string ZipCode&#10;" style="text;strokeColor=none;fillColor=none;align=left;verticalAlign=top;spacingLeft=4;spacingRight=4;overflow=hidden;rotatable=0;points=[[0,0.5],[1,0.5]];portConstraint=eastwest;" parent="sadiETQcaKYxQHdvcYxY-81" vertex="1">
                    <mxGeometry y="104" width="160" height="26" as="geometry"/>
                </mxCell>
                <mxCell id="sadiETQcaKYxQHdvcYxY-88" value="string CityName" style="text;strokeColor=none;fillColor=none;align=left;verticalAlign=top;spacingLeft=4;spacingRight=4;overflow=hidden;rotatable=0;points=[[0,0.5],[1,0.5]];portConstraint=eastwest;" parent="sadiETQcaKYxQHdvcYxY-81" vertex="1">
                    <mxGeometry y="130" width="160" height="26" as="geometry"/>
                </mxCell>
                <mxCell id="sadiETQcaKYxQHdvcYxY-91" value="string Country" style="text;strokeColor=none;fillColor=none;align=left;verticalAlign=top;spacingLeft=4;spacingRight=4;overflow=hidden;rotatable=0;points=[[0,0.5],[1,0.5]];portConstraint=eastwest;" parent="sadiETQcaKYxQHdvcYxY-81" vertex="1">
                    <mxGeometry y="156" width="160" height="26" as="geometry"/>
                </mxCell>
                <mxCell id="sadiETQcaKYxQHdvcYxY-89" value="string Currency" style="text;strokeColor=none;fillColor=none;align=left;verticalAlign=top;spacingLeft=4;spacingRight=4;overflow=hidden;rotatable=0;points=[[0,0.5],[1,0.5]];portConstraint=eastwest;" parent="sadiETQcaKYxQHdvcYxY-81" vertex="1">
                    <mxGeometry y="182" width="160" height="26" as="geometry"/>
                </mxCell>
                <mxCell id="sadiETQcaKYxQHdvcYxY-83" value="" style="line;strokeWidth=1;fillColor=none;align=left;verticalAlign=middle;spacingTop=-1;spacingLeft=3;spacingRight=3;rotatable=0;labelPosition=right;points=[];portConstraint=eastwest;" parent="sadiETQcaKYxQHdvcYxY-81" vertex="1">
                    <mxGeometry y="208" width="160" height="8" as="geometry"/>
                </mxCell>
                <mxCell id="sadiETQcaKYxQHdvcYxY-84" value="+ method(type): type" style="text;strokeColor=none;fillColor=none;align=left;verticalAlign=top;spacingLeft=4;spacingRight=4;overflow=hidden;rotatable=0;points=[[0,0.5],[1,0.5]];portConstraint=eastwest;" parent="sadiETQcaKYxQHdvcYxY-81" vertex="1">
                    <mxGeometry y="216" width="160" height="26" as="geometry"/>
                </mxCell>
                <mxCell id="2" value="SaleOrderLine" style="swimlane;fontStyle=1;align=center;verticalAlign=top;childLayout=stackLayout;horizontal=1;startSize=26;horizontalStack=0;resizeParent=1;resizeParentMax=0;resizeLast=0;collapsible=1;marginBottom=0;" vertex="1" parent="1">
                    <mxGeometry x="390" y="290" width="170" height="216" as="geometry"/>
                </mxCell>
                <mxCell id="3" value="SaleOrder SaleOrder" style="text;strokeColor=none;fillColor=none;align=left;verticalAlign=top;spacingLeft=4;spacingRight=4;overflow=hidden;rotatable=0;points=[[0,0.5],[1,0.5]];portConstraint=eastwest;" vertex="1" parent="2">
                    <mxGeometry y="26" width="170" height="26" as="geometry"/>
                </mxCell>
                <mxCell id="4" value="int ProductItemID" style="text;strokeColor=none;fillColor=none;align=left;verticalAlign=top;spacingLeft=4;spacingRight=4;overflow=hidden;rotatable=0;points=[[0,0.5],[1,0.5]];portConstraint=eastwest;" vertex="1" parent="2">
                    <mxGeometry y="52" width="170" height="26" as="geometry"/>
                </mxCell>
                <mxCell id="5" value="string ProductName" style="text;strokeColor=none;fillColor=none;align=left;verticalAlign=top;spacingLeft=4;spacingRight=4;overflow=hidden;rotatable=0;points=[[0,0.5],[1,0.5]];portConstraint=eastwest;" vertex="1" parent="2">
                    <mxGeometry y="78" width="170" height="26" as="geometry"/>
                </mxCell>
                <mxCell id="6" value="decimal ProductSellingPrice" style="text;strokeColor=none;fillColor=none;align=left;verticalAlign=top;spacingLeft=4;spacingRight=4;overflow=hidden;rotatable=0;points=[[0,0.5],[1,0.5]];portConstraint=eastwest;" vertex="1" parent="2">
                    <mxGeometry y="104" width="170" height="26" as="geometry"/>
                </mxCell>
                <mxCell id="7" value="enum ProductLocation" style="text;strokeColor=none;fillColor=none;align=left;verticalAlign=top;spacingLeft=4;spacingRight=4;overflow=hidden;rotatable=0;points=[[0,0.5],[1,0.5]];portConstraint=eastwest;" vertex="1" parent="2">
                    <mxGeometry y="130" width="170" height="26" as="geometry"/>
                </mxCell>
                <mxCell id="8" value="decimal SaleQty&#10;" style="text;strokeColor=none;fillColor=none;align=left;verticalAlign=top;spacingLeft=4;spacingRight=4;overflow=hidden;rotatable=0;points=[[0,0.5],[1,0.5]];portConstraint=eastwest;" vertex="1" parent="2">
                    <mxGeometry y="156" width="170" height="26" as="geometry"/>
                </mxCell>
                <mxCell id="10" value="" style="line;strokeWidth=1;fillColor=none;align=left;verticalAlign=middle;spacingTop=-1;spacingLeft=3;spacingRight=3;rotatable=0;labelPosition=right;points=[];portConstraint=eastwest;" vertex="1" parent="2">
                    <mxGeometry y="182" width="170" height="8" as="geometry"/>
                </mxCell>
                <mxCell id="11" value="+ method(type): type" style="text;strokeColor=none;fillColor=none;align=left;verticalAlign=top;spacingLeft=4;spacingRight=4;overflow=hidden;rotatable=0;points=[[0,0.5],[1,0.5]];portConstraint=eastwest;" vertex="1" parent="2">
                    <mxGeometry y="190" width="170" height="26" as="geometry"/>
                </mxCell>
            </root>
        </mxGraphModel>
    </diagram>
</mxfile>